<svg version="1.1" id="Layer_1" xmlns="http://www.w3.org/2000/svg" xmlns:xlink="http://www.w3.org/1999/xlink" x="0px" y="0px"
	 width="100%" viewBox="0 0 500 500" enable-background="new 0 0 500 500" xml:space="preserve">
<path fill="#FFFFFF" opacity="1.000000" stroke="none" 
	d="
M348.000000,501.000000 
	C232.000031,501.000000 116.500053,501.000000 1.000062,501.000000 
	C1.000041,334.333405 1.000041,167.666794 1.000021,1.000151 
	C167.666550,1.000101 334.333099,1.000101 500.999756,1.000051 
	C500.999817,167.666519 500.999817,334.333038 500.999908,500.999786 
	C450.166656,501.000000 399.333344,501.000000 348.000000,501.000000 
M344.295868,112.022949 
	C340.977600,111.767372 337.659546,111.292343 334.341034,111.289139 
	C285.029663,111.241570 235.718094,111.174988 186.406937,111.284561 
	C152.187897,111.360596 125.944359,137.637314 125.892822,171.780884 
	C125.818146,221.258759 125.818573,270.736908 125.892654,320.214783 
	C125.943794,354.368927 152.188431,380.663910 186.382355,380.736755 
	C235.693527,380.841766 285.005219,380.829407 334.316467,380.741089 
	C368.780975,380.679382 395.017029,354.357422 395.049133,319.924713 
	C395.095093,270.613342 395.071411,221.301910 395.035675,171.990540 
	C395.033386,168.837646 394.959503,165.635956 394.431915,162.539963 
	C389.879608,135.825562 372.870789,118.477890 344.295868,112.022949 
z"/>
<path fill="#FF253F" opacity="1.000000" stroke="none" 
	d="
M344.727356,112.069511 
	C372.870789,118.477890 389.879608,135.825562 394.431915,162.539963 
	C394.959503,165.635956 395.033386,168.837646 395.035675,171.990540 
	C395.071411,221.301910 395.095093,270.613342 395.049133,319.924713 
	C395.017029,354.357422 368.780975,380.679382 334.316467,380.741089 
	C285.005219,380.829407 235.693527,380.841766 186.382355,380.736755 
	C152.188431,380.663910 125.943794,354.368927 125.892654,320.214783 
	C125.818573,270.736908 125.818146,221.258759 125.892822,171.780884 
	C125.944359,137.637314 152.187897,111.360596 186.406937,111.284561 
	C235.718094,111.174988 285.029663,111.241570 334.341034,111.289139 
	C337.659546,111.292343 340.977600,111.767372 344.727356,112.069511 
M231.060440,181.216537 
	C230.953125,181.784012 230.845825,182.351501 230.095032,183.111008 
	C227.858002,184.311661 226.265732,185.775803 227.248535,189.020721 
	C225.003815,190.994537 222.660690,192.867966 220.529129,194.957245 
	C189.197403,225.667831 171.348846,263.336975 165.511307,306.360138 
	C162.014923,332.128754 170.403290,350.738159 198.094727,358.390778 
	C216.070862,363.358521 234.552231,363.317719 253.946609,362.977783 
	C272.186218,362.317963 290.524170,362.604553 308.636841,360.722687 
	C325.546082,358.965759 337.524414,351.299347 341.532074,336.047485 
	C343.762756,327.558411 344.546417,318.169525 343.574036,309.454895 
	C340.544922,282.308014 332.433258,256.522980 318.855042,232.708939 
	C308.648315,214.807846 295.131653,199.897720 277.578369,188.811096 
	C278.787384,185.082291 277.708984,183.081055 273.512390,183.087601 
	C272.368835,183.089386 271.224243,182.401230 270.888489,182.009888 
	C277.582764,181.331696 278.345703,180.304550 276.183167,174.734436 
	C282.550629,166.021393 289.080353,157.419113 295.160309,148.509872 
	C296.515930,146.523453 297.453186,142.795547 296.471466,141.072495 
	C295.454926,139.288223 291.924286,138.766083 289.386719,138.094757 
	C288.221161,137.786392 286.768738,138.324631 285.501434,138.676926 
	C276.878571,141.073883 269.504272,138.873779 262.779449,132.150360 
	C257.498962,128.124207 253.776398,128.072311 248.177948,131.264328 
	C243.906052,133.699997 239.355179,135.646347 234.212158,137.540863 
	C230.443985,136.766663 226.675812,135.992462 222.091248,135.031921 
	C218.297180,134.595322 214.511841,134.003479 210.705261,133.789688 
	C208.887268,133.687592 207.028976,134.303177 205.188934,134.593704 
	C205.691269,136.423096 205.819733,138.474823 206.754608,140.047012 
	C214.836441,153.638428 223.063461,167.143509 231.060440,181.216537 
z"/>
<path fill="#E6C573" opacity="1.000000" stroke="none" 
	d="
M253.021393,362.847992 
	C234.552231,363.317719 216.070862,363.358521 198.094727,358.390778 
	C170.403290,350.738159 162.014923,332.128754 165.511307,306.360138 
	C171.348846,263.336975 189.197403,225.667831 220.529129,194.957245 
	C222.660690,192.867966 225.003815,190.994537 227.852539,188.947998 
	C231.302338,189.187698 234.148132,189.500107 236.968384,190.188828 
	C233.300842,198.766434 229.658859,206.967712 226.016861,215.168991 
	C226.378799,215.375168 226.740738,215.581345 227.102676,215.787537 
	C234.077881,207.133972 241.053101,198.480423 248.489075,189.772888 
	C250.771790,189.709290 252.617447,189.883469 254.410919,189.652542 
	C258.372803,189.142395 260.115387,190.755844 259.282471,194.643829 
	C258.388916,198.814728 257.077423,202.897537 256.227661,207.075607 
	C255.927109,208.553375 256.449707,210.198547 256.596466,211.767288 
	C258.348724,211.057663 261.045197,210.816864 261.674408,209.549637 
	C263.488770,205.895462 264.469452,201.827332 266.079773,198.105499 
	C277.735107,217.354111 286.594543,237.541443 292.357056,258.944550 
	C296.350616,273.777435 299.790527,288.796326 302.598724,303.895630 
	C303.974030,311.290527 304.488342,319.228546 303.382050,326.619873 
	C301.276489,340.687042 290.729401,348.407013 278.732605,353.786011 
	C270.469086,357.491089 261.612762,359.874084 253.021393,362.847992 
M276.526154,302.930206 
	C286.130157,288.359711 281.975616,273.788208 266.257690,266.939850 
	C262.904327,265.478729 259.530060,264.065460 256.179230,262.598633 
	C253.143433,261.269684 250.588364,258.901520 252.201920,255.736404 
	C253.176514,253.824707 256.557770,252.034424 258.804077,252.097488 
	C264.138947,252.247269 269.441956,253.532669 275.387634,254.457062 
	C276.624237,250.307343 277.975952,245.771423 279.503601,240.645035 
	C273.956970,239.147415 269.077118,237.829819 263.980286,236.453644 
	C263.980286,234.827454 263.818024,233.321716 264.009735,231.862488 
	C264.670502,226.833420 261.281555,227.085403 258.009491,227.127213 
	C254.860596,227.167435 251.131088,226.564682 251.883011,231.686523 
	C252.468781,235.676620 250.948227,237.424286 247.006210,238.659103 
	C238.301239,241.385864 233.828522,247.918167 233.244415,256.932343 
	C232.661911,265.922180 236.093933,272.839935 244.489365,276.818634 
	C248.544144,278.740234 252.710297,280.432587 256.723633,282.434113 
	C259.961090,284.048706 262.984100,286.163422 261.893097,290.479828 
	C260.813110,294.752747 257.315216,296.256775 253.431915,295.889862 
	C247.400208,295.319946 241.427353,294.127228 234.649063,293.077637 
	C233.601257,297.302155 232.347961,302.355164 230.912201,308.143860 
	C236.334946,309.482697 241.109268,311.513580 245.928101,311.625366 
	C251.375534,311.751740 252.340012,313.975555 251.949890,318.571503 
	C251.817337,320.133026 252.334229,322.595520 253.413986,323.269897 
	C258.493439,326.442352 264.268280,323.214996 263.885864,317.392456 
	C263.587982,312.856781 264.459534,309.976471 269.347382,308.515259 
	C271.855835,307.765320 273.824524,305.209808 276.526154,302.930206 
M192.653061,330.996857 
	C186.519867,331.079437 183.026611,326.868713 179.480927,322.271393 
	C178.642319,329.393066 180.579620,332.789978 186.462677,335.217651 
	C190.595123,336.922943 196.823318,334.753754 200.362839,330.242584 
	C197.967850,330.505524 195.729767,330.751251 192.653061,330.996857 
M207.089127,350.535309 
	C210.586838,349.619293 214.084534,348.703278 217.582245,347.787231 
	C217.492340,347.181580 217.402435,346.575928 217.312515,345.970245 
	C209.377823,348.592010 203.104385,346.441559 198.330002,339.630798 
	C198.540497,345.244354 201.687897,348.338623 207.089127,350.535309 
z"/>
<path fill="#D6AC5A" opacity="1.000000" stroke="none" 
	d="
M253.484009,362.912903 
	C261.612762,359.874084 270.469086,357.491089 278.732605,353.786011 
	C290.729401,348.407013 301.276489,340.687042 303.382050,326.619873 
	C304.488342,319.228546 303.974030,311.290527 302.598724,303.895630 
	C299.790527,288.796326 296.350616,273.777435 292.357056,258.944550 
	C286.594543,237.541443 277.735107,217.354111 266.069641,197.694855 
	C265.870850,195.216446 265.984497,193.332413 266.165680,190.328293 
	C268.296387,192.759033 269.995972,194.158569 271.010834,195.946732 
	C276.071747,204.863785 280.882263,213.923340 285.980621,222.818253 
	C286.667206,224.016129 288.484375,224.565979 289.778015,225.415894 
	C290.541840,223.986847 291.612823,222.627319 291.957733,221.103470 
	C292.174652,220.145004 291.455627,218.854416 290.895905,217.859436 
	C286.271667,209.639313 281.558197,201.469330 276.951965,193.239273 
	C276.300537,192.075333 273.233856,190.532227 277.103241,189.444534 
	C295.131653,199.897720 308.648315,214.807846 318.855042,232.708939 
	C332.433258,256.522980 340.544922,282.308014 343.574036,309.454895 
	C344.546417,318.169525 343.762756,327.558411 341.532074,336.047485 
	C337.524414,351.299347 325.546082,358.965759 308.636841,360.722687 
	C290.524170,362.604553 272.186218,362.317963 253.484009,362.912903 
z"/>
<path fill="#D6AC5A" opacity="1.000000" stroke="none" 
	d="
M263.166504,132.732758 
	C269.504272,138.873779 276.878571,141.073883 285.501434,138.676926 
	C286.768738,138.324631 288.221161,137.786392 289.386719,138.094757 
	C291.924286,138.766083 295.454926,139.288223 296.471466,141.072495 
	C297.453186,142.795547 296.515930,146.523453 295.160309,148.509872 
	C289.080353,157.419113 282.550629,166.021393 275.598389,174.981018 
	C269.669373,175.771347 264.325195,176.315079 258.990967,176.413589 
	C260.389465,161.556488 261.777985,147.144623 263.166504,132.732758 
z"/>
<path fill="#E6C573" opacity="1.000000" stroke="none" 
	d="
M262.972961,132.441559 
	C261.777985,147.144623 260.389465,161.556488 258.564514,176.501068 
	C253.430725,177.444427 248.733398,177.855057 244.031097,177.828461 
	C243.784760,175.762924 243.662811,174.106216 243.282974,172.510895 
	C240.527328,160.937103 237.719635,149.375687 234.928421,137.810364 
	C239.355179,135.646347 243.906052,133.699997 248.177948,131.264328 
	C253.776398,128.072311 257.498962,128.124207 262.972961,132.441559 
z"/>
<path fill="#4D4A48" opacity="1.000000" stroke="none" 
	d="
M277.340820,189.127808 
	C273.233856,190.532227 276.300537,192.075333 276.951965,193.239273 
	C281.558197,201.469330 286.271667,209.639313 290.895905,217.859436 
	C291.455627,218.854416 292.174652,220.145004 291.957733,221.103470 
	C291.612823,222.627319 290.541840,223.986847 289.778015,225.415894 
	C288.484375,224.565979 286.667206,224.016129 285.980621,222.818253 
	C280.882263,213.923340 276.071747,204.863785 271.010834,195.946732 
	C269.995972,194.158569 268.296387,192.759033 266.165680,190.328293 
	C265.984497,193.332413 265.870850,195.216446 265.767395,197.511139 
	C264.469452,201.827332 263.488770,205.895462 261.674408,209.549637 
	C261.045197,210.816864 258.348724,211.057663 256.596466,211.767288 
	C256.449707,210.198547 255.927109,208.553375 256.227661,207.075607 
	C257.077423,202.897537 258.388916,198.814728 259.282471,194.643829 
	C260.115387,190.755844 258.372803,189.142395 254.410919,189.652542 
	C252.617447,189.883469 250.771790,189.709290 248.144379,189.582565 
	C243.890610,189.568329 240.442261,189.690414 236.993912,189.812500 
	C234.148132,189.500107 231.302338,189.187698 228.164993,188.711426 
	C226.265732,185.775803 227.858002,184.311661 230.906189,183.042023 
	C238.309723,182.983856 244.929855,182.622650 251.486481,183.112213 
	C257.786255,183.582626 263.676270,178.381317 270.080109,182.029709 
	C271.224243,182.401230 272.368835,183.089386 273.512390,183.087601 
	C277.708984,183.081055 278.787384,185.082291 277.340820,189.127808 
z"/>
<path fill="#D6AD5B" opacity="1.000000" stroke="none" 
	d="
M234.570282,137.675613 
	C237.719635,149.375687 240.527328,160.937103 243.282974,172.510895 
	C243.662811,174.106216 243.784760,175.762924 243.715485,178.029877 
	C241.615463,178.806549 239.826050,178.944565 238.000687,178.721344 
	C237.288925,177.046707 236.721390,175.662918 235.920197,174.431091 
	C229.625778,164.753372 223.248642,155.129272 216.985214,145.431656 
	C215.186188,142.646271 213.675568,139.674606 211.885620,136.529892 
	C216.148438,136.022614 219.528046,135.620438 222.907639,135.218262 
	C226.675812,135.992462 230.443985,136.766663 234.570282,137.675613 
z"/>
<path fill="#E5C271" opacity="1.000000" stroke="none" 
	d="
M222.499451,135.125092 
	C219.528046,135.620438 216.148438,136.022614 211.885620,136.529892 
	C213.675568,139.674606 215.186188,142.646271 216.985214,145.431656 
	C223.248642,155.129272 229.625778,164.753372 235.920197,174.431091 
	C236.721390,175.662918 237.288925,177.046707 237.629333,178.831146 
	C235.278366,179.759583 233.262802,180.216949 231.247223,180.674316 
	C223.063461,167.143509 214.836441,153.638428 206.754608,140.047012 
	C205.819733,138.474823 205.691269,136.423096 205.188934,134.593689 
	C207.028976,134.303177 208.887268,133.687592 210.705261,133.789688 
	C214.511841,134.003479 218.297180,134.595322 222.499451,135.125092 
z"/>
<path fill="#43403E" opacity="1.000000" stroke="none" 
	d="
M231.153839,180.945435 
	C233.262802,180.216949 235.278366,179.759583 237.665298,179.192398 
	C239.826050,178.944565 241.615463,178.806549 243.720459,178.467102 
	C248.733398,177.855057 253.430725,177.444427 258.554504,176.946320 
	C264.325195,176.315079 269.669373,175.771347 275.421082,175.293396 
	C278.345703,180.304550 277.582764,181.331696 270.484314,182.019806 
	C263.676270,178.381317 257.786255,183.582626 251.486481,183.112213 
	C244.929855,182.622650 238.309723,182.983856 231.227936,182.946014 
	C230.845825,182.351501 230.953125,181.784012 231.153839,180.945435 
z"/>
<path fill="#494948" opacity="1.000000" stroke="none" 
	d="
M276.281647,303.200256 
	C273.824524,305.209808 271.855835,307.765320 269.347382,308.515259 
	C264.459534,309.976471 263.587982,312.856781 263.885864,317.392456 
	C264.268280,323.214996 258.493439,326.442352 253.413986,323.269897 
	C252.334229,322.595520 251.817337,320.133026 251.949890,318.571503 
	C252.340012,313.975555 251.375534,311.751740 245.928101,311.625366 
	C241.109268,311.513580 236.334946,309.482697 230.912201,308.143860 
	C232.347961,302.355164 233.601257,297.302155 234.649063,293.077637 
	C241.427353,294.127228 247.400208,295.319946 253.431915,295.889862 
	C257.315216,296.256775 260.813110,294.752747 261.893097,290.479828 
	C262.984100,286.163422 259.961090,284.048706 256.723633,282.434113 
	C252.710297,280.432587 248.544144,278.740234 244.489365,276.818634 
	C236.093933,272.839935 232.661911,265.922180 233.244415,256.932343 
	C233.828522,247.918167 238.301239,241.385864 247.006210,238.659103 
	C250.948227,237.424286 252.468781,235.676620 251.883011,231.686523 
	C251.131088,226.564682 254.860596,227.167435 258.009491,227.127213 
	C261.281555,227.085403 264.670502,226.833420 264.009735,231.862488 
	C263.818024,233.321716 263.980286,234.827454 263.980286,236.453644 
	C269.077118,237.829819 273.956970,239.147415 279.503601,240.645035 
	C277.975952,245.771423 276.624237,250.307343 275.387634,254.457062 
	C269.441956,253.532669 264.138947,252.247269 258.804077,252.097488 
	C256.557770,252.034424 253.176514,253.824707 252.201920,255.736404 
	C250.588364,258.901520 253.143433,261.269684 256.179230,262.598633 
	C259.530060,264.065460 262.904327,265.478729 266.257690,266.939850 
	C281.975616,273.788208 286.130157,288.359711 276.281647,303.200256 
z"/>
<path fill="#D0AB5D" opacity="1.000000" stroke="none" 
	d="
M236.968384,190.188812 
	C240.442261,189.690414 243.890610,189.568329 247.683640,189.636551 
	C241.053101,198.480423 234.077881,207.133972 227.102676,215.787537 
	C226.740738,215.581345 226.378799,215.375168 226.016861,215.168991 
	C229.658859,206.967712 233.300842,198.766434 236.968384,190.188812 
z"/>
<path fill="#D2AA66" opacity="1.000000" stroke="none" 
	d="
M193.072357,330.996918 
	C195.729767,330.751251 197.967850,330.505524 200.362839,330.242584 
	C196.823318,334.753754 190.595123,336.922943 186.462677,335.217651 
	C180.579620,332.789978 178.642319,329.393066 179.480927,322.271393 
	C183.026611,326.868713 186.519867,331.079437 193.072357,330.996918 
z"/>
<path fill="#D2AA66" opacity="1.000000" stroke="none" 
	d="
M206.738129,350.385803 
	C201.687897,348.338623 198.540497,345.244354 198.330002,339.630798 
	C203.104385,346.441559 209.377823,348.592010 217.312515,345.970245 
	C217.402435,346.575928 217.492340,347.181580 217.582245,347.787231 
	C214.084534,348.703278 210.586838,349.619293 206.738129,350.385803 
z"/>
</svg>